<?xml version="1.0" encoding="utf-8"?>
<!-- Generator: Adobe Illustrator 22.1.0, SVG Export Plug-In . SVG Version: 6.00 Build 0)  -->
<svg version="1.1" id="Layer_1" xmlns="http://www.w3.org/2000/svg" xmlns:xlink="http://www.w3.org/1999/xlink" x="0px" y="0px"
	 viewBox="0 0 48.9 46.7" style="enable-background:new 0 0 48.9 46.7;" xml:space="preserve">
<style type="text/css">
	.st0{fill:#FFFFFF;}
</style>
<g id="Interface-Essential__x2F__Edit__x2F__pen-write-paper">
	<g id="Group_304">
		<g id="pen-write-paper">
			<g id="Shape_1426">
				<path class="st0" d="M15.2,31.7c-0.4,0-0.8-0.2-1-0.4c-0.4-0.4-0.5-0.9-0.4-1.4l2.1-8.2c0.1-0.2,0.2-0.5,0.4-0.6L28.6,8.3
					c0.3-0.3,0.6-0.4,1-0.4c0.4,0.1,0.8,0.2,1,0.4l6.2,6.2c0.6,0.6,0.6,1.5,0,2.1L24.5,29.1c-0.2,0.2-0.4,0.3-0.7,0.4l-8.2,2.1
					C15.5,31.7,15.4,31.7,15.2,31.7z M18.7,22.8l-1.4,5.4l5.4-1.4l11.2-11.2l-4.2-4.2L18.7,22.8z"/>
			</g>
			<g id="Shape_1427">
				<path class="st0" d="M38.8,22.9c-0.4,0-0.7-0.1-1-0.4c-0.6-0.6-0.6-1.5,0-2.1l6.3-6.3c0.3-0.5,0.5-0.9,0.5-1.2
					c0-0.8-0.3-1-0.4-1.1l-2.1-2.1c-0.6-0.6-0.6-1.5,0-2.1c0.6-0.6,1.5-0.6,2.1,0l2.1,2.1c0.8,0.8,1.2,1.9,1.2,3.2
					c0,0.9-0.3,1.9-1,3c-0.1,0.1-0.1,0.2-0.2,0.2l-6.4,6.4C39.6,22.8,39.2,22.9,38.8,22.9z M45.3,15L45.3,15L45.3,15z"/>
			</g>
			<g id="Shape_1428">
				<path class="st0" d="M35.9,17.2c-0.4,0-0.7-0.1-1-0.4c-0.6-0.6-0.6-1.5,0-2.1l7.2-7.2c0.1-0.1,0.4-0.4,0.4-1.1
					c0-0.3-0.2-0.7-0.4-1.2l-2-1.8c-0.6-0.6-1.5-0.6-2.1,0l-7.2,7.2c-0.6,0.6-1.5,0.6-2.1,0s-0.6-1.5,0-2.1l7.2-7.2
					c1.7-1.7,4.4-1.7,6.2,0l2.1,1.9c0.1,0.1,0.2,0.2,0.2,0.3c0.7,1,1,2,1,3c0,1.3-0.4,2.4-1.2,3.2L37,16.8
					C36.7,17.1,36.3,17.2,35.9,17.2z"/>
			</g>
			<g id="Shape_1429">
				<path class="st0" d="M27.3,46.7H5.1c-2.4,0-4.4-2-4.4-4.4V4.5c0-2.4,2-4.4,4.4-4.4h21.8c0.8,0,1.5,0.7,1.5,1.5S27.8,3,26.9,3
					H5.1C4.4,3,3.6,3.7,3.6,4.5v37.8c0,0.8,0.7,1.5,1.5,1.5h22.2c0.8,0,1-0.3,1.1-0.4l9.8-9.8c0.3-0.5,0.5-0.9,0.5-1.2v-6
					c0-0.8,0.7-1.5,1.5-1.5s1.5,0.7,1.5,1.5v6c0,0.9-0.3,1.9-1,3c-0.1,0.1-0.1,0.2-0.2,0.2l-9.9,9.9C29.7,46.3,28.6,46.7,27.3,46.7z
					"/>
			</g>
			<g id="Shape_1430">
				<path class="st0" d="M28.5,46.5c-0.8,0-1.5-0.7-1.5-1.5v-8.6c0-2.4,2-4.4,4.4-4.4H40c0.8,0,1.5,0.7,1.5,1.5S40.8,35,40,35h-8.6
					c-0.8,0-1.5,0.7-1.5,1.5V45C30,45.9,29.3,46.5,28.5,46.5z"/>
			</g>
		</g>
	</g>
</g>
</svg>
