<?xml version="1.0" encoding="utf-8"?>
<!-- Generator: Adobe Illustrator 22.1.0, SVG Export Plug-In . SVG Version: 6.00 Build 0)  -->
<svg version="1.1" id="Layer_1" xmlns="http://www.w3.org/2000/svg" xmlns:xlink="http://www.w3.org/1999/xlink" x="0px" y="0px"
	 viewBox="0 0 46.3 46.2" style="enable-background:new 0 0 46.3 46.2;" xml:space="preserve">
<g id="delete-1">
	<g id="Shape_1514">
		<path d="M1.7,46.2c-0.5,0-1-0.2-1.2-0.5c-0.7-0.7-0.7-1.7,0-2.4L43.4,0.5c0.7-0.7,1.7-0.7,2.4,0c0.7,0.7,0.7,1.7,0,2.4L2.9,45.7
			C2.7,46,2.2,46.2,1.7,46.2z"/>
	</g>
	<g id="Shape_1515">
		<path d="M44.6,46.2c-0.5,0-1-0.2-1.2-0.5L0.5,2.9c-0.7-0.7-0.7-1.7,0-2.4s1.7-0.7,2.4,0l42.8,42.8c0.7,0.7,0.7,1.7,0,2.4
			C45.3,46,44.8,46.2,44.6,46.2z"/>
	</g>
</g>
</svg>
