<?xml version="1.0" encoding="utf-8"?>
<!-- Generator: Adobe Illustrator 22.1.0, SVG Export Plug-In . SVG Version: 6.00 Build 0)  -->
<svg version="1.1" id="Layer_1" xmlns="http://www.w3.org/2000/svg" xmlns:xlink="http://www.w3.org/1999/xlink" x="0px" y="0px"
	 viewBox="0 0 48.9 46.7" style="enable-background:new 0 0 48.9 46.7;" xml:space="preserve">
<style type="text/css">
	.st0{fill:#FFFFFF;}
</style>
<g id="Interface-Essential__x2F__Delete__x2F__delete-1">
	<g id="Group_323">
		<g id="delete-1">
			<g id="Oval_186">
				<path class="st0" d="M24.3,46.7c-12.7,0-23.1-10.4-23.1-23.1c0-12.7,10.4-23.1,23.1-23.1c12.9,0,23.3,10.4,23.3,23.1
					C47.7,36.3,37.2,46.7,24.3,46.7z M24.3,1.9c-12,0-21.7,9.7-21.7,21.7c0,12,9.7,21.7,21.7,21.7c12.1,0,21.9-9.7,21.9-21.7
					C46.3,11.6,36.4,1.9,24.3,1.9z"/>
			</g>
			<g id="Shape_1514">
				<path class="st0" d="M15.3,33.3c-0.2,0-0.4-0.1-0.5-0.2c-0.3-0.3-0.3-0.7,0-1l18-18c0.3-0.3,0.7-0.3,1,0c0.3,0.3,0.3,0.7,0,1
					l-18,18C15.7,33.2,15.5,33.3,15.3,33.3z"/>
			</g>
			<g id="Shape_1515">
				<path class="st0" d="M33.4,33.3c-0.2,0-0.4-0.1-0.5-0.2l-18-18c-0.3-0.3-0.3-0.7,0-1s0.7-0.3,1,0l18,18c0.3,0.3,0.3,0.7,0,1
					C33.7,33.2,33.5,33.3,33.4,33.3z"/>
			</g>
		</g>
	</g>
</g>
</svg>
