<?xml version="1.0" encoding="utf-8"?>
<!-- Generator: Adobe Illustrator 22.1.0, SVG Export Plug-In . SVG Version: 6.00 Build 0)  -->
<svg version="1.1" id="Layer_1" xmlns="http://www.w3.org/2000/svg" xmlns:xlink="http://www.w3.org/1999/xlink" x="0px" y="0px"
	 viewBox="0 0 24 19.5" style="enable-background:new 0 0 24 19.5;" xml:space="preserve">
<style type="text/css">
	.st0{clip-path:url(#SVGID_2_);}
	.st1{fill:#FFFFFF;}
</style>
<g>
	<defs>
		<rect id="SVGID_1_" width="24" height="19.5"/>
	</defs>
	<clipPath id="SVGID_2_">
		<use xlink:href="#SVGID_1_"  style="overflow:visible;"/>
	</clipPath>
	<g class="st0">
		<path class="st1" d="M18.8,19.5h-18c-0.2,0-0.4-0.1-0.6-0.3C0,19.1,0,18.9,0,18.7l2.3-18C2.3,0.3,2.6,0,3,0h18
			c0.2,0,0.4,0.1,0.6,0.3c0.1,0.2,0.2,0.4,0.2,0.6l-2.3,18C19.4,19.2,19.1,19.5,18.8,19.5z M1.6,18h16.5l2.1-16.5H3.7L1.6,18z"/>
	</g>
	<g class="st0">
		<path class="st1" d="M23.2,19.5c-0.4,0-0.7-0.3-0.7-0.7l-2.3-18c-0.1-0.4,0.2-0.8,0.7-0.8c0.4,0,0.8,0.2,0.8,0.7l2.3,18
			C24,19.1,23.8,19.4,23.2,19.5C23.3,19.5,23.3,19.5,23.2,19.5z"/>
	</g>
	<g class="st0">
		<path class="st1" d="M6.8,19.5C6.7,19.5,6.7,19.5,6.8,19.5C6.2,19.4,6,19.1,6,18.7l2.3-18C8.3,0.2,8.7,0,9.1,0
			c0.4,0.1,0.7,0.4,0.7,0.8l-2.3,18C7.4,19.2,7.1,19.5,6.8,19.5z"/>
	</g>
	<g class="st0">
		<path class="st1" d="M12.8,19.5C12.7,19.5,12.7,19.5,12.8,19.5c-0.5-0.1-0.8-0.4-0.7-0.8l2.3-18C14.3,0.2,14.7,0,15.1,0
			c0.4,0.1,0.7,0.4,0.7,0.8l-2.3,18C13.4,19.2,13.1,19.5,12.8,19.5z"/>
	</g>
	<g class="st0">
		<path class="st1" d="M20.4,6h-18C2,6,1.7,5.7,1.7,5.3S2,4.5,2.4,4.5h18c0.4,0,0.8,0.3,0.8,0.8S20.9,6,20.4,6z"/>
	</g>
	<g class="st0">
		<path class="st1" d="M19.3,15h-18c-0.4,0-0.8-0.3-0.8-0.8s0.3-0.8,0.8-0.8h18c0.4,0,0.8,0.3,0.8,0.8S19.7,15,19.3,15z"/>
	</g>
	<g class="st0">
		<path class="st1" d="M19.9,10.5h-18c-0.4,0-0.8-0.3-0.8-0.8S1.5,9,1.9,9h18c0.4,0,0.8,0.3,0.8,0.8S20.3,10.5,19.9,10.5z"/>
	</g>
</g>
</svg>
