<?xml version="1.0" encoding="utf-8"?>
<!-- Generator: Adobe Illustrator 22.1.0, SVG Export Plug-In . SVG Version: 6.00 Build 0)  -->
<svg version="1.1" id="Layer_1" xmlns="http://www.w3.org/2000/svg" xmlns:xlink="http://www.w3.org/1999/xlink" x="0px" y="0px"
	 viewBox="0 0 48.9 46.7" style="enable-background:new 0 0 48.9 46.7;" xml:space="preserve">
<style type="text/css">
	.st0{fill:#FFFFFF;}
</style>
<g id="Social-Medias-Rewards-Rating__x2F__Love-It__x2F__love-it">
	<g id="Group_65">
		<g id="love-it">
			<g id="Shape_232">
				<path class="st0" d="M24.6,46.2c-0.4,0-0.8-0.2-1.1-0.5L4,25.4c-3.9-3.9-5-10.2-2.5-15.1C3.4,6.6,7,3.9,11.1,3.2
					c4.1-0.7,8.2,0.6,11.3,3.7L24.6,9l2.2-2.2c3-3,7.1-4.4,11.3-3.7c4.2,0.7,7.6,3.2,9.6,7.1c2.6,5.1,1.5,11.2-2.5,15L25.7,45.7
					C25.4,46,25,46.2,24.6,46.2z M13.3,6.1c-0.5,0-1.1,0-1.6,0.1c-3.1,0.5-6,2.6-7.4,5.5c-1.9,3.8-1.1,8.6,1.9,11.6l18.4,19.2
					L43,23.1c3.2-3,3.9-7.6,2-11.5c-1.6-3-4.2-4.9-7.4-5.5c-3.2-0.5-6.3,0.5-8.6,2.8l-3.2,3.2c-0.6,0.6-1.6,0.6-2.2,0L20.3,9
					C18.3,7.1,15.9,6.1,13.3,6.1z"/>
			</g>
		</g>
	</g>
</g>
</svg>
