<?xml version="1.0" encoding="utf-8"?>
<!-- Generator: Adobe Illustrator 22.1.0, SVG Export Plug-In . SVG Version: 6.00 Build 0)  -->
<svg version="1.1" id="Layer_1" xmlns="http://www.w3.org/2000/svg" xmlns:xlink="http://www.w3.org/1999/xlink" x="0px" y="0px"
	 viewBox="0 0 24 24" style="enable-background:new 0 0 24 24;" xml:space="preserve">
<g id="Icons" class="st0">
	<g id="Interface-Essential__x2F__Edit__x2F__pencil-1">
		<g id="Group_306">
			<g id="pencil-1">
				<g id="Shape_1435">
					<path d="M0.7,24c-0.2,0-0.4-0.1-0.5-0.2C0,23.5-0.1,23.3,0,23l1.8-6.9c0-0.1,0.1-0.2,0.2-0.3L16.5,1.3C17.3,0.4,18.4,0,19.6,0
						c1.2,0,2.3,0.5,3.1,1.3c0,0,0,0,0,0C23.6,2.1,24,3.2,24,4.4s-0.5,2.3-1.3,3.1L8.1,21.9C8,22,7.9,22.1,7.8,22.1l-6.9,1.8
						C0.8,23.9,0.8,24,0.7,24z M3.2,16.7l-1.4,5.5l5.5-1.4L21.7,6.5c0.6-0.6,0.9-1.3,0.9-2.1s-0.3-1.5-0.9-2.1c-1.2-1.2-3-1.2-4.1,0
						L3.2,16.7z"/>
				</g>
				<g id="Shape_1436">
					<path d="M21.7,8.1c-0.2,0-0.4-0.1-0.5-0.2l-5.1-5.1c-0.3-0.3-0.3-0.8,0-1.1s0.8-0.3,1.1,0l5.1,5.1c0.3,0.3,0.3,0.8,0,1.1
						C22.1,8.1,21.9,8.1,21.7,8.1z"/>
				</g>
				<g id="Shape_1437">
					<path d="M19.6,10.3c-0.2,0-0.4-0.1-0.5-0.2L14,4.9c-0.3-0.3-0.3-0.8,0-1.1s0.8-0.3,1.1,0L20.1,9c0.3,0.3,0.3,0.8,0,1.1
						C20,10.2,19.8,10.3,19.6,10.3z"/>
				</g>
				<g id="Shape_1438">
					<path d="M7.6,22.2c-0.2,0-0.4-0.1-0.5-0.2L2,16.8c-0.3-0.3-0.3-0.8,0-1.1s0.8-0.3,1.1,0l5.1,5.1c0.3,0.3,0.3,0.8,0,1.1
						C8,22.1,7.8,22.2,7.6,22.2z"/>
				</g>
			</g>
		</g>
	</g>
</g>
<g id="Text">
</g>
</svg>
