<?xml version="1.0" encoding="utf-8"?>
<!-- Generator: Adobe Illustrator 22.1.0, SVG Export Plug-In . SVG Version: 6.00 Build 0)  -->
<svg version="1.1" id="Layer_1" xmlns="http://www.w3.org/2000/svg" xmlns:xlink="http://www.w3.org/1999/xlink" x="0px" y="0px"
	 viewBox="0 0 22.5 22.5" style="enable-background:new 0 0 22.5 22.5;" xml:space="preserve">
<g id="Icons">
	<g id="Interface-Essential__x2F__Delete__x2F__bin-1">
		<g id="Group_316">
			<g id="bin-1">
				<g id="Shape_1471">
					<path d="M21.8,4.5h-21C0.4,4.5,0,4.2,0,3.8S0.4,3,0.8,3h21c0.4,0,0.8,0.3,0.8,0.8S22.2,4.5,21.8,4.5z"/>
				</g>
				<g id="Shape_1472">
					<path d="M15,4.5H7.5c-0.4,0-0.8-0.3-0.8-0.8V2.3C6.8,1.1,7.8,0,9,0h4.5c1.2,0,2.3,1,2.3,2.2v1.6C15.8,4.2,15.4,4.5,15,4.5z
						 M8.3,3h6V2.2c0-0.4-0.4-0.7-0.8-0.7H9c-0.4,0-0.8,0.4-0.8,0.8V3z"/>
				</g>
				<g id="Shape_1473">
					<path d="M9,17.3c-0.4,0-0.8-0.3-0.8-0.8V9c0-0.4,0.3-0.8,0.8-0.8S9.8,8.6,9.8,9v7.5C9.8,16.9,9.4,17.3,9,17.3z"/>
				</g>
				<g id="Shape_1474">
					<path d="M13.5,17.3c-0.4,0-0.8-0.3-0.8-0.8V9c0-0.4,0.3-0.8,0.8-0.8s0.8,0.3,0.8,0.8v7.5C14.3,16.9,13.9,17.3,13.5,17.3z"/>
				</g>
				<g id="Shape_1475">
					<path d="M16.6,22.5H5.9c-1.2,0-2.1-0.9-2.2-2.1L2.3,3.9c0-0.2,0.1-0.4,0.2-0.6C2.6,3.1,2.8,3,3,3h16.5c0.2,0,0.4,0.1,0.6,0.2
						c0.1,0.2,0.2,0.4,0.2,0.6l-1.4,16.6c0,0,0,0,0,0C18.7,21.7,17.8,22.5,16.6,22.5z M3.8,4.5l1.3,15.8c0,0.3,0.3,0.7,0.8,0.7h10.7
						c0.5,0,0.7-0.4,0.8-0.7l1.3-15.8H3.8z M18.1,20.4L18.1,20.4L18.1,20.4z"/>
				</g>
			</g>
		</g>
	</g>
</g>
<g id="Text">
</g>
</svg>
