<?xml version="1.0" encoding="utf-8"?>
<!-- Generator: Adobe Illustrator 22.1.0, SVG Export Plug-In . SVG Version: 6.00 Build 0)  -->
<svg version="1.1" id="Layer_1" xmlns="http://www.w3.org/2000/svg" xmlns:xlink="http://www.w3.org/1999/xlink" x="0px" y="0px"
	 viewBox="0 0 48.9 46.7" style="enable-background:new 0 0 48.9 46.7;" xml:space="preserve">
<style type="text/css">
	.st0{fill:#FFFFFF;}
</style>
<g id="Logos__x2F__Social-Medias__x2F__social-media-facebook-1">
	<g id="Group_136">
		<g id="Regular_136">
			<g id="Shape_399">
				<path class="st0" d="M45.5,48.1H33.3c-0.8,0-1.5-0.7-1.5-1.5v-17c0-0.8,0.7-1.5,1.5-1.5h4.8l0.7-5h-5.3c-0.8,0-1.5-0.7-1.5-1.5
					v-2.2c0-1.2,0.6-2.6,1.4-3.5c0.9-0.9,2.1-1.4,3.5-1.4H40v-5h-3.1c-5.5,0-9.9,4.5-9.9,9.9v2.2c0,0.8-0.7,1.5-1.5,1.5h-4.5v5h4.5
					c0.8,0,1.5,0.7,1.5,1.5v17c0,0.8-0.7,1.5-1.5,1.5h-21c-2,0-3.5-1.5-3.5-3.5V3.5c0-2,1.5-3.5,3.5-3.5h41.1c2,0,3.5,1.5,3.5,3.5
					v41.1C49,46.6,47.5,48.1,45.5,48.1z M34.8,45.1h10.7c0.4,0,0.5-0.1,0.5-0.5V3.5C46,3.1,45.9,3,45.5,3H4.4C4,3,3.9,3.1,3.9,3.5
					v41.1c0,0.4,0.1,0.5,0.5,0.5h19.5v-14h-3.5c-1.4,0-2.5-1.1-2.5-2.5v-6c0-1.4,1.1-2.5,2.5-2.5h3.5v-0.7c0-7.1,5.8-12.9,12.9-12.9
					h3.6c1.4,0,2.5,1.1,2.5,2.5v6c0,1.4-1.1,2.5-2.5,2.5h-3.6c-0.5,0-1,0.2-1.3,0.6c-0.3,0.3-0.6,0.9-0.6,1.3V20h4.3
					c1,0,1.6,0.6,1.9,0.8c0.6,0.6,0.6,1.5,0.6,1.9L41,29c0,1.1-1.1,2.1-2.5,2.1h-3.7V45.1z M38,28.5c0,0.1,0,0.1,0,0.2L38,28.5z"/>
			</g>
		</g>
	</g>
</g>
</svg>
