<?xml version="1.0" encoding="utf-8"?>
<!-- Generator: Adobe Illustrator 22.1.0, SVG Export Plug-In . SVG Version: 6.00 Build 0)  -->
<svg version="1.1" id="Layer_1" xmlns="http://www.w3.org/2000/svg" xmlns:xlink="http://www.w3.org/1999/xlink" x="0px" y="0px"
	 viewBox="0 0 48.9 46.7" style="enable-background:new 0 0 48.9 46.7;" xml:space="preserve">
<style type="text/css">
	.st0{fill:#FFFFFF;}
</style>
<g id="Interface-Essential__x2F__Date_x2F_Calendar__x2F__calendar-clock">
	<g id="Group_274">
		<g id="calendar-clock">
			<g id="Shape_1256">
				<path class="st0" d="M17.6,35H5.9c-2.4,0-4.4-2-4.4-4.4V7.3c0-2.4,2-4.4,4.4-4.4h26.3c2.4,0,4.4,2,4.4,4.4v8.8
					c0,0.8-0.7,1.5-1.5,1.5s-1.5-0.7-1.5-1.5V7.3c0-0.8-0.7-1.5-1.5-1.5H5.9c-0.8,0-1.5,0.7-1.5,1.5v23.4c0,0.8,0.7,1.5,1.5,1.5
					h11.7c0.8,0,1.5,0.7,1.5,1.5C19,34.4,18.4,35,17.6,35z"/>
			</g>
			<g id="Shape_1257">
				<path class="st0" d="M35.1,14.6H3c-0.8,0-1.5-0.7-1.5-1.5s0.7-1.5,1.5-1.5h32.1c0.8,0,1.5,0.7,1.5,1.5S35.9,14.6,35.1,14.6z"/>
			</g>
			<g id="Shape_1258">
				<path class="st0" d="M11.7,8.8c-0.8,0-1.5-0.7-1.5-1.5V1.5c0-0.8,0.7-1.5,1.5-1.5s1.5,0.7,1.5,1.5v5.8
					C13.2,8.1,12.5,8.8,11.7,8.8z"/>
			</g>
			<g id="Shape_1259">
				<path class="st0" d="M26.3,8.8c-0.8,0-1.5-0.7-1.5-1.5V1.5c0-0.8,0.7-1.5,1.5-1.5c0.8,0,1.5,0.7,1.5,1.5v5.8
					C27.8,8.1,27.1,8.8,26.3,8.8z"/>
			</g>
			<g id="Oval_172">
				<path class="st0" d="M35.1,46.7c-7.4,0-13.1-5.8-13.1-13.1c0-7.2,5.9-13.1,13.1-13.1s13.1,5.9,13.1,13.1
					C48.2,40.8,42.3,46.7,35.1,46.7z M35.1,23.3c-5.6,0-10.2,4.6-10.2,10.2c0,5.7,4.5,10.2,10.2,10.2c5.6,0,10.2-4.6,10.2-10.2
					C45.3,27.9,40.7,23.3,35.1,23.3z"/>
			</g>
			<g id="Shape_1260">
				<path class="st0" d="M40.1,35h-5.3c-0.8,0-1.5-0.7-1.5-1.5v-5.3c0-0.8,0.7-1.5,1.5-1.5c0.8,0,1.5,0.7,1.5,1.5v3.8h3.8
					c0.8,0,1.5,0.7,1.5,1.5C41.6,34.4,40.9,35,40.1,35z"/>
			</g>
		</g>
	</g>
</g>
</svg>
