<?xml version="1.0" encoding="utf-8"?>
<!-- Generator: Adobe Illustrator 22.1.0, SVG Export Plug-In . SVG Version: 6.00 Build 0)  -->
<svg version="1.1" id="Layer_1" xmlns="http://www.w3.org/2000/svg" xmlns:xlink="http://www.w3.org/1999/xlink" x="0px" y="0px"
	 viewBox="0 0 48.9 46.7" style="enable-background:new 0 0 48.9 46.7;" xml:space="preserve">
<style type="text/css">
	.st0{fill:#FFFFFF;}
</style>
<g id="Logos__x2F__Photos-Images__x2F__social-instagram">
	<g id="Group_13">
		<g id="Regular_13">
			<g id="Rectangle-path_5">
				<path class="st0" d="M34.8,46.7H14.3c-7.2,0-13.1-5.9-13.1-13.1V13.1C1.2,5.9,7.1,0,14.3,0h20.4C42,0,47.9,5.9,47.9,13.1v20.4
					C47.9,40.8,42,46.7,34.8,46.7z M14.3,2.9C8.7,2.9,4.1,7.5,4.1,13.1v20.4c0,5.6,4.6,10.2,10.2,10.2h20.4
					c5.6,0,10.2-4.6,10.2-10.2V13.1c0-5.6-4.6-10.2-10.2-10.2H14.3z"/>
			</g>
			<g id="Oval_8">
				<path class="st0" d="M24.6,34.4c-6.3,0-11.2-4.9-11.2-11.2c0-6.3,4.9-11.2,11.2-11.2S35.8,17,35.8,23.3
					C35.8,29.5,30.9,34.4,24.6,34.4z M24.6,15c-4.6,0-8.3,3.6-8.3,8.3c0,4.6,3.6,8.3,8.3,8.3s8.3-3.6,8.3-8.3
					C32.9,18.6,29.3,15,24.6,15z"/>
			</g>
			<g id="Shape_16">
				<path class="st0" d="M37.9,12.5c-1.4,0-2.4-1-2.4-2.4c0-0.8,0.7-1.5,1.5-1.5c0.4,0,0.7,0.1,1,0.4c0.3-0.2,0.6-0.4,1-0.4
					c0.8,0,1.5,0.7,1.5,1.5C40.3,11.4,39.3,12.5,37.9,12.5z"/>
			</g>
			<g id="Shape_17">
				<path class="st0" d="M38.9,11.5c-0.4,0-0.7-0.1-1-0.4c-0.3,0.2-0.6,0.4-1,0.4c-0.8,0-1.5-0.7-1.5-1.5c0-1.4,1-2.4,2.4-2.4
					s2.4,1,2.4,2.4C40.3,10.8,39.7,11.5,38.9,11.5z"/>
			</g>
		</g>
	</g>
</g>
</svg>
