<?xml version="1.0" encoding="utf-8"?>
<!-- Generator: Adobe Illustrator 22.1.0, SVG Export Plug-In . SVG Version: 6.00 Build 0)  -->
<svg version="1.1" id="Layer_1" xmlns="http://www.w3.org/2000/svg" xmlns:xlink="http://www.w3.org/1999/xlink" x="0px" y="0px"
	 viewBox="0 0 48.9 46.7" style="enable-background:new 0 0 48.9 46.7;" xml:space="preserve">
<style type="text/css">
	.st0{fill:#FFFFFF;}
</style>
<g id="Interface-Essential__x2F__Menu__x2F__navigation-menu-3">
	<g id="Group_23">
		<g id="navigation-menu-3">
			<g id="Oval_10">
				<path class="st0" d="M24.2,46.7c-13,0-23.3-10.2-23.3-23.2C0.9,10.5,11.3,0,24.2,0c12.9,0,23.4,10.5,23.4,23.5
					C47.6,36.3,37.1,46.7,24.2,46.7z M24.2,1.6c-11.9,0-21.7,9.8-21.7,21.9c0,12.1,9.5,21.7,21.7,21.7c12,0,21.9-9.7,21.9-21.7
					C46,11.4,36.2,1.6,24.2,1.6z"/>
			</g>
			<g id="Shape_69">
				<path class="st0" d="M33.2,16.6h-18c-0.4,0-0.8-0.4-0.8-0.8s0.4-0.8,0.8-0.8h18c0.4,0,0.8,0.4,0.8,0.8S33.6,16.6,33.2,16.6z"/>
			</g>
			<g id="Shape_70">
				<path class="st0" d="M33.2,24.3h-18c-0.4,0-0.8-0.4-0.8-0.8s0.4-0.8,0.8-0.8h18c0.4,0,0.8,0.4,0.8,0.8S33.6,24.3,33.2,24.3z"/>
			</g>
			<g id="Shape_71">
				<path class="st0" d="M33.2,31.7h-18c-0.4,0-0.8-0.4-0.8-0.8s0.4-0.8,0.8-0.8h18c0.4,0,0.8,0.4,0.8,0.8S33.6,31.7,33.2,31.7z"/>
			</g>
		</g>
	</g>
</g>
</svg>
