<?xml version="1.0" encoding="utf-8"?>
<!-- Generator: Adobe Illustrator 24.0.0, SVG Export Plug-In . SVG Version: 6.00 Build 0)  -->
<svg version="1.1" id="Layer_1" xmlns="http://www.w3.org/2000/svg" xmlns:xlink="http://www.w3.org/1999/xlink" x="0px" y="0px"
	 viewBox="0 0 40 40" style="enable-background:new 0 0 40 40;" xml:space="preserve">
<style type="text/css">
	.st0{fill:none;stroke:#FFFFFF;stroke-width:2.2231;stroke-linecap:round;stroke-linejoin:round;}
</style>
<g id="Sports__x2F__Fitness__x2F__fitness-dumbbell">
	<g id="Group_24">
		<g id="Regular_24">
			<path id="Shape_81" class="st0" d="M26.5,3.5c-0.9,0.9-0.9,2.3,0,3.1l6.5,6.5c0.9,0.9,2.3,0.9,3.1,0c0.9-0.9,0.9-2.3,0-3.1
				l-6.5-6.5C28.8,2.6,27.4,2.6,26.5,3.5z"/>
			<path id="Shape_82" class="st0" d="M20.2,3.5c-0.4,0.4-0.7,1-0.7,1.6c0,0.6,0.2,1.2,0.7,1.6L33,19.4c0.9,0.9,2.3,0.9,3.1,0
				c0.9-0.9,0.9-2.3,0-3.1L23.4,3.5c-0.4-0.4-1-0.7-1.6-0.7S20.7,3.1,20.2,3.5z"/>
			<path id="Shape_83" class="st0" d="M4.1,25.9c0.4-0.4,1-0.7,1.6-0.7s1.2,0.2,1.6,0.7l6.5,6.5c0.8,0.9,0.8,2.3,0,3.1
				c-0.9,0.9-2.2,0.9-3.1,0l-6.5-6.5C3.2,28.2,3.2,26.8,4.1,25.9z"/>
			<path id="Shape_84" class="st0" d="M4.1,19.6c0.9-0.9,2.3-0.9,3.1,0L20,32.4c0.9,0.9,0.9,2.3,0,3.1c-0.9,0.9-2.3,0.9-3.1,0
				L4.1,22.8c-0.4-0.4-0.7-1-0.7-1.6C3.5,20.6,3.7,20,4.1,19.6z"/>
			<path id="Rectangle-path_3" class="st0" d="M12.1,24.4l13-13l3.1,3.1l-13,13L12.1,24.4z"/>
		</g>
	</g>
</g>
</svg>
