<?xml version="1.0" encoding="utf-8"?>
<!-- Generator: Adobe Illustrator 22.1.0, SVG Export Plug-In . SVG Version: 6.00 Build 0)  -->
<svg version="1.1" id="Layer_1" xmlns="http://www.w3.org/2000/svg" xmlns:xlink="http://www.w3.org/1999/xlink" x="0px" y="0px"
	 viewBox="0 0 48.9 46.7" style="enable-background:new 0 0 48.9 46.7;" xml:space="preserve">
<style type="text/css">
	.st0{fill:#FFFFFF;}
</style>
<g id="Social-Medias-Rewards-Rating__x2F__Likes_x2F__like-1">
	<g id="Group_25">
		<g id="like-1">
			<g id="Shape_111">
				<path class="st0" d="M34.1,46.5h-9.5c-1.1,0-2.4,0-3.6-0.5l-6.8-1.9c-1.1-0.2-2-0.3-2.7-0.3c-0.8,0-1.5-0.6-1.5-1.5
					c0-0.3,0.1-0.5,0.2-0.7V23.4c0-0.8,0.6-1.5,1.5-1.5c7.1,0,13.1-6,13.1-13.1V5.8c0-3.1,2.6-5.7,5.7-5.7c3.1,0,5.7,2.6,5.7,5.7
					v6.6c0,0.4,0.1,1.2,1.1,1.5l2.8,0.6c4.7,1.1,8,5.6,7.7,10.4l-0.6,9.9C46.5,41.5,40.9,46.5,34.1,46.5z M13.1,41
					c0.6,0.1,1.3,0.2,1.7,0.3l7.1,2c0.9,0.3,1.8,0.3,2.7,0.3h9.5c5.3,0,9.7-3.9,10.2-9.1l0.6-9.8c0.2-3.4-2.2-6.6-5.5-7.4l-2.8-0.6
					c-2-0.6-3.3-2.3-3.3-4.3V5.8C33.2,4.3,32,3,30.4,3c-1.5,0-2.8,1.3-2.8,2.8v3.1c0,8.3-6.4,15.2-14.5,15.9V41z"/>
			</g>
			<g id="Rectangle-path_7">
				<path class="st0" d="M11.5,46.7H2.8c-0.8,0-1.5-0.6-1.5-1.5V19.1c0-0.8,0.6-1.5,1.5-1.5h8.7c0.8,0,1.5,0.6,1.5,1.5v26.1
					C12.9,46.1,12.3,46.7,11.5,46.7z M4.2,43.8H10V20.6H4.2V43.8z"/>
			</g>
		</g>
	</g>
</g>
</svg>
