<?xml version="1.0" encoding="utf-8"?>
<!-- Generator: Adobe Illustrator 24.0.0, SVG Export Plug-In . SVG Version: 6.00 Build 0)  -->
<svg version="1.1" id="Layer_1" xmlns="http://www.w3.org/2000/svg" xmlns:xlink="http://www.w3.org/1999/xlink" x="0px" y="0px"
	 viewBox="0 0 26.8 26.2" style="enable-background:new 0 0 26.8 26.2;" xml:space="preserve">
<style type="text/css">
	.st0{fill:none;stroke:#FFFFFF;stroke-width:1.5;stroke-linecap:round;stroke-linejoin:round;}
	.st1{fill:none;stroke:#FFFFFF;stroke-width:1.5;stroke-linecap:round;}
</style>
<g id="Interface-Essential__x2F__Alerts__x2F__alert-triangle">
	<g id="Group_184">
		<g id="alert-triangle">
			<path id="Shape_827" class="st0" d="M13.4,19.8c-0.2,0-0.4,0.2-0.4,0.4s0.2,0.4,0.4,0.4c0.2,0,0.4-0.2,0.4-0.4
				S13.6,19.8,13.4,19.8L13.4,19.8"/>
			<path id="Shape_828" class="st1" d="M13.4,16.8V9.3"/>
			<path id="Shape_829" class="st0" d="M15,2.8c-0.3-0.6-0.9-1-1.6-1c-0.7,0-1.3,0.4-1.6,1L2.3,22.1c-0.2,0.5-0.2,1,0.1,1.5
				c0.3,0.4,0.8,0.7,1.3,0.7h19.5c0.5,0,1-0.3,1.3-0.7c0.3-0.4,0.3-1,0.1-1.5L15,2.8z"/>
		</g>
	</g>
</g>
</svg>
