<?xml version="1.0" encoding="utf-8"?>
<!-- Generator: Adobe Illustrator 22.1.0, SVG Export Plug-In . SVG Version: 6.00 Build 0)  -->
<svg version="1.1" id="Layer_1" xmlns="http://www.w3.org/2000/svg" xmlns:xlink="http://www.w3.org/1999/xlink" x="0px" y="0px"
	 viewBox="0 0 48.9 46.7" style="enable-background:new 0 0 48.9 46.7;" xml:space="preserve">
<style type="text/css">
	.st0{fill:#FFFFFF;}
</style>
<g>
	<g>
		<path class="st0" d="M24.7,46.7c-4.5,0-8.6-1.1-12.2-3.3l-7.7,2.5c-0.5,0.2-1.1,0-1.5-0.4C3,45.1,2.9,44.6,3,44l2.3-7.3
			C2.8,33,1.4,28.5,1.4,23.9c0-12.8,10.5-23.2,23.4-23.2c6.3,0,12.4,2.6,16.7,7c4.2,4.3,6.5,9.9,6.4,15.8
			C47.9,36.3,37.5,46.7,24.7,46.7z M12.7,40.3c0.3,0,0.6,0.1,0.8,0.2c3.2,2.2,7,3.2,11.2,3.2c11.2,0,20.2-9.1,20.2-20.2
			c0.1-5.1-1.9-10-5.6-13.7c-3.8-3.9-9.2-6.1-14.7-6.1c-11.3,0-20.4,9.1-20.4,20.2c0,4.2,1.3,8.4,3.8,11.7c0.3,0.4,0.3,0.8,0.2,1.3
			l-1.7,5.2l5.6-1.8C12.4,40.3,12.6,40.3,12.7,40.3z M29.9,36.7c-0.2,0-0.5,0-0.8,0c-6.6-0.4-14.2-6.2-16.7-12.6
			c-1.6-4.1-0.9-8,1.9-11c0.8-0.9,2.3-1.5,3.7-1.3c1.2,0.2,2.2,0.9,2.6,1.9c0.4,1.2,1.3,3.5,1.6,4c0.2,0.2,0.3,0.5,0.3,0.8
			c0.1,0.2,0.2,0.8-0.1,1.5c-0.2,0.6-0.4,0.9-0.9,1.3c-0.1,0.1-0.2,0.2-0.4,0.3c1.6,2.5,3.8,4.4,6.8,5.9c0.3-0.3,0.7-0.8,1-1.3
			c0.1-0.1,0.1-0.2,0.2-0.2c1-1,2.2-0.8,2.7-0.6c0.6,0.1,1.3,0.4,2.9,1.3c0.5,0.2,0.9,0.5,1.1,0.5c0.8,0.3,1.4,0.6,1.7,0.9
			c0.1,0.1,0.1,0.1,0.2,0.2c0.7,1.1,0.6,2.5-0.4,4.1C35.9,35.2,33.3,36.7,29.9,36.7z M17.4,14.7c-0.4,0-0.7,0.1-0.9,0.3
			c-2.2,2.3-2.6,5-1.4,8c2.1,5.3,8.8,10.4,14.2,10.7c2.6,0.2,4.4-0.8,5.6-2.8c0.2-0.4,0.3-0.7,0.4-0.9c-0.1,0-0.2-0.1-0.4-0.1
			c-0.2-0.1-0.8-0.4-1.5-0.7c-0.6-0.3-1.8-0.9-2.1-1c-0.1,0-0.1,0-0.2,0c-0.4,0.5-0.9,1.2-1.3,1.6c-1,1-1.9,0.8-2.6,0.5
			c-0.1,0-0.1,0-0.2-0.1c-3.9-1.9-6.7-4.4-8.6-7.5c-0.5-0.8-0.5-1.6,0.1-2.5c0.1-0.1,0.2-0.3,0.3-0.4c0.3-0.3,0.6-0.5,0.7-0.7
			l0.1-0.1c0,0,0-0.1,0-0.1c-0.7-1.3-1.7-4.1-1.7-4.3c0,0.1-0.1,0-0.3,0C17.6,14.7,17.5,14.7,17.4,14.7z M30.9,28.2L30.9,28.2
			L30.9,28.2z M20.9,21.2C20.9,21.2,20.9,21.2,20.9,21.2C20.9,21.2,20.9,21.2,20.9,21.2z"/>
	</g>
</g>
</svg>
